<svg width="26" height="24" viewBox="0 0 26 24" fill="none" xmlns="http://www.w3.org/2000/svg">
<path d="M2.6 4.79993H0V21.5999C0 22.9199 1.17 23.9999 2.6 23.9999H20.8V21.5999H2.6V4.79993Z" fill="#B7B7B7"/>
<path d="M23.4 0H7.79995C6.36995 0 5.19995 1.08 5.19995 2.4V16.8C5.19995 18.12 6.36995 19.2 7.79995 19.2H23.4C24.83 19.2 26 18.12 26 16.8V2.4C26 1.08 24.83 0 23.4 0ZM15.613 15.6C14.846 15.6 14.248 15.036 14.248 14.34C14.248 13.632 14.859 13.092 15.613 13.092C16.38 13.092 16.965 13.632 16.965 14.34C16.952 15.036 16.38 15.6 15.613 15.6ZM18.863 8.196C18.044 9.312 17.264 9.648 16.835 10.368C16.666 10.656 16.601 10.848 16.601 11.784H14.625C14.625 11.292 14.547 10.488 14.963 9.804C15.496 8.928 16.497 8.412 17.082 7.644C17.706 6.828 17.355 5.316 15.6 5.316C14.456 5.316 13.884 6.12 13.65 6.792L11.869 6.108C12.363 4.752 13.676 3.6 15.587 3.6C17.186 3.6 18.291 4.272 18.85 5.112C19.331 5.844 19.604 7.188 18.863 8.196Z" fill="#B7B7B7"/>
</svg>
