<svg width="24" height="24" viewBox="0 0 24 24" fill="none" xmlns="http://www.w3.org/2000/svg">
<path d="M14.1851 7.2L16.3825 3.6L14.1851 0H9.81485L7.61749 3.6L9.81485 7.2H14.1851Z" fill="#B7B7B7"/>
<path d="M9.81485 8.3999L7.61749 11.9999L9.81485 15.5999H14.1851L16.3825 11.9999L14.1851 8.3999H9.81485Z" fill="#B7B7B7"/>
<path d="M17.4323 11.412H21.8148L24 7.81204L21.8148 4.21204H17.4323L15.235 7.81204L17.4323 11.412Z" fill="#B7B7B7"/>
<path d="M21.8148 12.6121H17.4323L15.235 16.2121L17.4323 19.8121H21.8148L24 16.2121L21.8148 12.6121Z" fill="#B7B7B7"/>
<path d="M6.56765 11.412L8.765 7.81204L6.56765 4.21204H2.18515L0 7.81204L2.18515 11.412H6.56765Z" fill="#B7B7B7"/>
<path d="M6.56765 12.6121H2.18515L0 16.2121L2.18515 19.8121H6.56765L8.765 16.2121L6.56765 12.6121Z" fill="#B7B7B7"/>
<path d="M9.81485 16.8L7.61749 20.4L9.81485 24H14.1851L16.3825 20.4L14.1851 16.8H9.81485Z" fill="#B7B7B7"/>
</svg>
