<svg width="40" height="40" viewBox="0 0 40 40" fill="none" xmlns="http://www.w3.org/2000/svg">
<rect width="40" height="40" rx="20" fill="#FFCC16"/>
<path d="M19.8235 24.2198C21.916 24.2198 23.5924 22.5202 23.5924 20.4148L23.605 12.8049C23.605 10.6995 21.916 9 19.8235 9C17.7311 9 16.042 10.6995 16.042 12.8049V20.4148C16.042 22.5202 17.7311 24.2198 19.8235 24.2198ZM27.5756 20.4148C26.9839 20.4148 26.5141 20.898 26.4176 21.4819C25.8845 24.7085 22.9672 26.8832 19.8235 26.8832C16.6799 26.8832 13.7626 24.7085 13.2295 21.4819C13.133 20.898 12.6632 20.4148 12.0714 20.4148V20.4148C11.4797 20.4148 10.9927 20.897 11.0704 21.4836C11.493 24.6708 13.7727 27.3167 16.7062 28.4459C17.7386 28.8434 18.563 29.7562 18.563 30.8625V31.8375C18.563 32.5336 19.1274 33.098 19.8235 33.098V33.098C20.5197 33.098 21.084 32.5336 21.084 31.8375V30.8656C21.084 29.7583 21.911 28.8456 22.945 28.4494C25.8774 27.3256 28.1556 24.6787 28.577 21.4837C28.6544 20.897 28.1674 20.4148 27.5756 20.4148V20.4148Z" fill="white"/>
</svg>
